# xmcd
#
# Track frame offsets:
#	150
#	13728
#	28753
#	43807
#
# Disc length: 894 seconds
#
# Revision: 0
# Processed by: cddbd v1.5.2PL0 Copyright (c) Steve Scherf et al.
# Submitted via: audiograbber 1.83.01
#
DISCID=2d037c04
DTITLE=Helmut Qualtinger - Die Qualtinger Songs
DYEAR=1900
DGENRE=
TTITLE0=Der Halbwilde
TTITLE1=Der Bundesbahnblues
TTITLE2=Der g´schupfte Ferdl
TTITLE3=Der Papa wird´s schon richten
EXTD=
EXTT0=Text u. Musik: Gerhard Bronner
EXTT1=Text u. Musik: Gerhard Bronner
EXTT2=Text u. Musik: Gerhard Bronner
EXTT3=Text u. Musik: Gerhard Bronner
PLAYORDER=
